<svg width="432" height="199" viewBox="0 0 432 199" xmlns="http://www.w3.org/2000/svg" xmlns:xlink="http://www.w3.org/1999/xlink">
    <defs>
        <path id="4cfc4kqzka" d="M.06.352h46.393v70.296H.059z"/>
        <path id="omlqh213nc" d="M0 .643h23.824V68H0z"/>
        <path id="ofg7mzlhqe" d="M0 .553h71.276V54H0z"/>
        <path id="qeip8iybhg" d="M0 68.533h69.591V0H0z"/>
        <path id="tzc44yauti" d="M0 .875h61.167V41H0z"/>
        <path id="fcmuzz1mtk" d="M.627.31h65.908v26.136H.627z"/>
        <path id="reycmouf5m" d="M.141.373h7.424v30.555H.141z"/>
        <path id="yspr5vj10o" d="M.307.374H19.5v30.8H.307z"/>
    </defs>
    <g fill="none" fill-rule="evenodd">
        <path d="M31.7 109.16h11.716v-7.405H31.7v7.406zm0 11.795h11.716v-8.111H31.7v8.11zm-3.84 3.683h19.396V98.07H27.86v26.567zM68.533 82.672c-.837-3.37-2.313-7.274-4.428-11.716l-3.526 1.528c1.881 3.919 3.33 7.824 4.35 11.716l3.604-1.528z" fill="#FFF"/>
        <g transform="translate(24 64.649)">
            <mask id="szdu3mgd5b" fill="#fff">
                <use xlink:href="#4cfc4kqzka"/>
            </mask>
            <path d="M16.947 24.019h-5.329c-.496-3.474-1.319-7.484-2.469-12.03h9.718c-.6 4.859-1.24 8.869-1.92 12.03zm25.98 30.289c-.262 3.5-.707 6.348-1.334 8.542-.626 2.194-1.162 3.292-1.606 3.292-.6 0-1.43-1.012-2.488-3.037-1.058-2.024-1.822-4.461-2.292-7.308 3.58-5.538 6.53-12.695 8.855-21.473l-3.448-1.293c-1.934 7-4.049 12.565-6.348 16.693-.914-5.59-1.37-12.866-1.37-21.826h13.086v-3.762H32.66c0-5.433.052-13.165.157-23.197h-3.919v23.08h-8.032c.914-3.735 1.58-7.745 1.998-12.03h3.213V8.306h-9.325c-1.176-3.057-2.456-5.707-3.84-7.954L9.384 2.27c1.62 2.613 2.638 4.624 3.056 6.035H2.332v3.683h2.782A128.125 128.125 0 0 1 7.7 24.019H.06v3.879h28.995c.182 10.789.85 19.88 1.998 27.272-3.814 4.572-7.954 8.399-12.42 11.48l2.154 2.979c3.631-2.038 7.458-5.251 11.481-9.64 2.037 7.106 4.598 10.659 7.68 10.659 3.501 0 5.67-4.728 6.505-14.185l-3.527-2.155z" fill="#FFF" mask="url(#szdu3mgd5b)"/>
        </g>
        <g transform="translate(0 67.649)">
            <mask id="lfir5cyxjd" fill="#fff">
                <use xlink:href="#omlqh213nc"/>
            </mask>
            <path d="M8.425 4.522h8.425v12.5h-5.852v3.84h5.852v13.831h-5.852v3.762h5.852V50.72c-4.154 1.855-6.962 3.031-8.425 3.527V4.522zm-7.288 0h3.448v51.252c-.837.34-2.365.902-4.585 1.686l1.293 3.526c3.997-1.306 9.182-3.382 15.557-6.23V68h3.762V4.522h3.212V.643H1.137v3.879z" fill="#FFF" mask="url(#lfir5cyxjd)"/>
        </g>
        <path fill="#FFF" d="M165.553 65.313v6.936h-19.278v3.84h19.278v7.366h-21.747v3.958h47.49v-3.958h-21.59V76.09h18.69v-3.84h-18.69v-6.936zM134.95 79.616l3.056-3.213c-3.422-4.284-7.092-8.085-11.01-11.403l-3.096 2.978c4.78 3.84 8.463 7.72 11.05 11.638"/>
        <g transform="translate(121 81.806)">
            <mask id="8auz2bct9f" fill="#fff">
                <use xlink:href="#ofg7mzlhqe"/>
            </mask>
            <path d="M39.38 48.279c-7.157 0-12.564-.79-16.222-2.371-3.657-1.58-6.622-3.806-8.894-6.68 2.089-4.415 3.748-9.21 4.975-14.381v-3.92H6.818c4.494-5.693 8.555-11.205 12.187-16.534V.553H.627V4.55h13.558c-4.05 5.877-8.111 11.233-12.186 16.065v4.232h13.009C12.657 35.636 7.654 44.413 0 51.179l3.292 2.82c3.109-2.9 6.099-6.543 8.973-10.931 5.486 6.217 15.086 9.325 28.8 9.325h28.997l1.214-4.114H39.38z" fill="#FFF" mask="url(#8auz2bct9f)"/>
        </g>
        <path d="M165.63 127.616h4.154v-8.66h21.747v-3.958h-21.747v-6.269h17.242v-3.84h-17.242V98.7h19.907V94.78h-11.873c.904-1.435 1.94-2.418 3.109-4.936h-4.54c-.731 1.818-1.774 2.792-3.154 4.936H161.36c-.482-1.535-1.32-2.518-2.501-4.936h-4.628c.926 1.686 1.853 2.66 2.78 4.936h-11.442v3.918h20.062v6.191h-17.28v3.84h17.28V115H143.61v3.957h22.02v8.66z" fill="#FFF"/>
        <g transform="translate(244 64)">
            <path d="m11.09 16.575-1.372 3.487c5.956.6 11.95 1.777 17.985 3.527l1.607-3.135c-5.277-1.515-11.35-2.808-18.22-3.88" fill="#FFF"/>
            <mask id="crr7t48p8h" fill="#fff">
                <use xlink:href="#qeip8iybhg"/>
            </mask>
            <path fill="#FFF" mask="url(#crr7t48p8h)" d="M6.427 39.615h56.738v-3.84H6.427zM10.267 32.797c6.948-.94 13.427-2.22 19.436-3.84l-1.686-3.213c-4.73 1.489-11.206 2.717-19.435 3.683l1.685 3.37zM40.36 20.219l1.45 3.292c7.131-.81 13.401-2.051 18.808-3.723l-1.803-3.017c-4.467 1.437-10.619 2.586-18.455 3.448"/>
            <path fill="#FFF" mask="url(#crr7t48p8h)" d="M5.564 13.95H32.68v18.063h3.92V13.95h27.468v13.48h4.075V10.186H36.598V3.683H65.32V0H4.35v3.683h28.33v6.504H1.528v17.006h4.035z"/>
            <path d="m59.56 33.032 1.764-3.448c-5.303-1.672-11.639-3.057-19.005-4.154l-1.764 3.213c7.21 1.202 13.544 2.665 19.005 4.39M69.59 46.041H0v3.918h23.942l-.004.004h5.212l.003-.004h16.693l-2.037 2.822c2.873 1.777 5.928 3.996 9.169 6.661-10.816 1.542-23.367 2.992-37.657 4.349 3.479-2.399 7.663-5.506 12.53-11.279H22.64c-4.87 5.738-9.737 9.053-14.606 11.906l.392 3.449c12.982-.68 29.218-2.39 48.706-5.134a208.993 208.993 0 0 1 6.034 5.8l2.9-2.978C61.31 60.67 54.937 55.472 46.943 49.959H69.59v-3.918z" fill="#FFF" mask="url(#crr7t48p8h)"/>
        </g>
        <g>
            <path d="m411.708 117.232 1.293-3.879c-9.639-1.029-19.961-1.778-32.929-2.252v3.781c12.692.546 22.584 1.328 31.636 2.35M384.749 101.48l3.84-2.077c-2.456-2.324-4.911-4.114-7.366-5.368l-3.801 2.155c3.056 1.855 5.498 3.62 7.327 5.29" fill="#FFF"/>
            <g transform="translate(365 92.69)">
                <mask id="9kiucx9aqj" fill="#fff">
                    <use xlink:href="#tzc44yauti"/>
                </mask>
                <path d="M35.775.875h-4.232v9.287H8.267v9.717c0 7.602-2.756 13.702-8.267 18.3L3.292 41c3.264-2.98 5.746-6.597 7.444-10.854l.012.024.392-.922c1.383-3.247 1.383-10.896 1.383-10.896l-.023-.002V14.12h44.473v11.129c-14.569 1.81-28.3 3.163-43.184 4.078l-.045 4.195c12.827-.861 26.25-2.553 43.23-4.59v5.407c0 .81-.328 1.404-.98 1.782-.654.38-3.057.569-7.21.569-1.672 0-3.383-.04-5.133-.117l1.293 3.84c1.306.05 2.638.078 3.997.078 3.396 0 5.805-.074 7.23-.216 1.422-.145 2.611-.712 3.565-1.704.953-.993 1.431-2.273 1.431-3.84V10.162H35.775V.875z" fill="#FFF" mask="url(#9kiucx9aqj)"/>
            </g>
            <g transform="translate(365 64.69)">
                <mask id="ge706dvjll" fill="#fff">
                    <use xlink:href="#fcmuzz1mtk"/>
                </mask>
                <path fill="#FFF" mask="url(#ge706dvjll)" d="M35.697 9.597V4.15h28.095V.31h-60.5v3.84h28.173v5.447H.627v15.909h4.036v-12.07h26.802v13.01h4.232v-13.01h26.645v12.07h4.193V9.596z"/>
            </g>
            <path d="M412.766 101.559c3.265-1.75 5.878-3.618 7.837-5.603l-3.762-2.233c-2.56 2.272-5.16 4.14-7.798 5.603l3.723 2.233zM423.11 80.4c-4.729 1.123-11.155 1.867-19.278 2.232l1.45 3.371c7.47-.366 13.87-1.163 19.2-2.39l-1.372-3.214zM424.207 89.607c-4.989-.888-11.351-1.475-19.082-1.763l-.98 3.291c7.732.262 14.106.928 19.122 2l.94-3.528zM374.64 93.134c5.59-.366 11.638-1.188 18.142-2.469l-1.45-3.056a147.172 147.172 0 0 1-17.985 2.077l1.293 3.448zM392.86 82.398c-5.042-.993-11.115-1.685-18.22-2.077l-1.137 3.29c6.374.263 12.421.929 18.142 2l1.215-3.213z" fill="#FFF"/>
        </g>
        <path fill="#FFF" d="m106 100 .866.5-20 34.641-.866-.5zM228 100l.866.5-20 34.641-.866-.5zM349 100l.866.5-20 34.641-.866-.5z"/>
        <g>
            <path d="M18.21 2.636h4.184V20.68c0 3.556-.964 6.29-2.893 8.203-1.925 1.915-4.696 2.87-8.304 2.87-3.609 0-6.377-.947-8.304-2.848C.963 27.006 0 24.265 0 20.68V2.636h4.184V21.05c0 2.297.601 4.068 1.805 5.312 1.203 1.244 2.938 1.864 5.208 1.864s4.005-.62 5.21-1.864c1.202-1.244 1.803-3.015 1.803-5.312V2.636zM44.582 12.93c-1.941 0-3.773.629-5.496 1.887V26.26c1.776 1.311 3.581 1.968 5.413 1.968 3.773 0 5.661-2.543 5.661-7.628 0-2.597-.457-4.525-1.374-5.783s-2.317-1.886-4.204-1.886zm-9.558 26.576V10.264h3.405l.37 2.134c2.078-1.832 4.387-2.748 6.93-2.748 2.653 0 4.745.963 6.275 2.89 1.533 1.928 2.297 4.546 2.297 7.855 0 3.363-.807 6.056-2.419 8.079-1.614 2.024-3.759 3.035-6.438 3.035-2.462 0-4.582-.805-6.358-2.42v10.417h-4.062zM111.833 30.566c-1.34.519-2.858.779-4.553.779-3.883 0-5.824-1.941-5.824-5.824V13.462h-3.773V10.84l3.897-.493.616-5.906h3.321v5.824h6.152v3.198h-6.152v11.854c0 1.012.224 1.723.676 2.134.45.409 1.225.614 2.317.614 1.122 0 2.23-.136 3.323-.41v2.912zM131.027 28.393c3.856 0 5.782-2.584 5.782-7.752 0-5.14-1.926-7.71-5.782-7.71-3.854 0-5.781 2.57-5.781 7.71 0 5.168 1.927 7.752 5.781 7.752m0 3.28c-3.116 0-5.551-.97-7.3-2.912-1.75-1.94-2.624-4.647-2.624-8.12 0-3.445.874-6.139 2.624-8.08 1.749-1.941 4.184-2.911 7.3-2.911 3.117 0 5.55.97 7.3 2.911s2.627 4.635 2.627 8.08c0 3.473-.878 6.18-2.627 8.12-1.75 1.943-4.183 2.913-7.3 2.913M200.666 30.566c-1.34.519-2.858.779-4.553.779-3.883 0-5.824-1.941-5.824-5.824V13.462h-3.773V10.84l3.897-.493.616-5.906h3.321v5.824h6.152v3.198h-6.152v11.854c0 1.012.224 1.723.676 2.134.45.409 1.225.614 2.317.614 1.122 0 2.23-.136 3.323-.41v2.912zM225.069 31.058V17.154c0-1.448-.293-2.515-.88-3.198-.59-.683-1.513-1.025-2.77-1.025-2.16 0-4.28.696-6.358 2.092v16.035h-4.06V.708h4.06v11.689c2.598-1.832 5.251-2.748 7.957-2.748 1.996 0 3.514.528 4.553 1.579 1.04 1.053 1.56 2.577 1.56 4.574v15.256h-4.062zM249.964 12.726c-1.723 0-3.063.512-4.019 1.537-.958 1.026-1.504 2.55-1.64 4.573h10.211c.027-.219.042-.573.042-1.067 0-1.667-.39-2.923-1.168-3.773-.782-.846-1.923-1.27-3.426-1.27zm-5.66 8.816c.054 2.352.636 4.088 1.743 5.21 1.108 1.12 2.824 1.681 5.147 1.681 2.16 0 4.361-.424 6.603-1.272v2.913c-1.968 1.065-4.374 1.6-7.217 1.6-3.364 0-5.907-.93-7.63-2.79-1.722-1.86-2.583-4.606-2.583-8.243 0-3.472.86-6.173 2.583-8.1 1.723-1.928 4.128-2.891 7.22-2.891 2.596 0 4.594.732 5.987 2.193 1.394 1.464 2.091 3.534 2.091 6.215 0 1.284-.11 2.445-.327 3.484h-13.616zM322.054 29.943c-2.215.848-4.608 1.273-7.177 1.273-4.485 0-7.882-1.238-10.193-3.712-2.31-2.474-3.466-6.105-3.466-10.89 0-4.729 1.197-8.367 3.59-10.908 2.393-2.543 5.816-3.816 10.274-3.816 2.324 0 4.51.37 6.562 1.108v3.405c-2.49-.575-4.513-.862-6.07-.862-3.446 0-5.96.84-7.546 2.523-1.587 1.681-2.38 4.354-2.38 8.017v.984c0 3.609.772 6.262 2.319 7.957 1.543 1.695 3.998 2.543 7.36 2.543 1.724 0 3.965-.342 6.727-1.025v3.403z" fill="#FFF"/>
            <g transform="translate(332.698)">
                <mask id="4f0n6881vn" fill="#fff">
                    <use xlink:href="#reycmouf5m"/>
                </mask>
                <path d="M7.565 30.436c-.903.327-1.887.492-2.954.492-1.449 0-2.557-.417-3.321-1.25C.523 28.843.14 27.647.14 26.088V.373h4.061v25.469c0 .63.13 1.087.39 1.374.26.287.69.431 1.292.431.545 0 1.108-.04 1.681-.122v2.911z" fill="#FFF" mask="url(#4f0n6881vn)"/>
            </g>
            <path d="M359.704 28.057c3.856 0 5.781-2.583 5.781-7.75 0-5.142-1.925-7.711-5.781-7.711-3.855 0-5.782 2.57-5.782 7.71 0 5.168 1.927 7.751 5.782 7.751m0 3.281c-3.117 0-5.552-.97-7.3-2.912-1.75-1.94-2.625-4.648-2.625-8.12 0-3.445.874-6.139 2.625-8.08 1.748-1.942 4.183-2.911 7.3-2.911 3.116 0 5.55.97 7.3 2.91 1.748 1.942 2.626 4.636 2.626 8.081 0 3.472-.878 6.18-2.626 8.12-1.75 1.942-4.184 2.912-7.3 2.912M395.097 30.723l-.451-2.216c-2.543 1.888-5.155 2.832-7.834 2.832-1.942 0-3.432-.549-4.47-1.64-1.041-1.094-1.56-2.64-1.56-4.636V9.93h4.062V23.75c0 1.478.286 2.564.861 3.261.574.697 1.489 1.047 2.749 1.047 1.968 0 3.948-.657 5.946-1.97V9.93h4.06v20.794h-3.363z" fill="#FFF"/>
            <g transform="translate(409.474)">
                <mask id="01oc14j4op" fill="#fff">
                    <use xlink:href="#yspr5vj10o"/>
                </mask>
                <path d="M10.272 27.893c1.695 0 3.417-.628 5.167-1.887V14.4c-.847-.628-1.701-1.086-2.563-1.374-.862-.287-1.811-.43-2.85-.43-3.718 0-5.578 2.57-5.578 7.711 0 5.058 1.94 7.587 5.824 7.587zm5.865 2.83-.535-2.133a9.881 9.881 0 0 1-3.075 1.907 9.451 9.451 0 0 1-3.485.677c-1.724 0-3.242-.425-4.552-1.27-1.313-.848-2.34-2.086-3.077-3.713C.675 24.565.307 22.642.307 20.428s.354-4.155 1.064-5.824c.71-1.667 1.73-2.966 3.056-3.895 1.326-.93 2.905-1.394 4.737-1.394 2.324 0 4.416.764 6.275 2.295V.374h4.062v30.349h-3.364z" fill="#FFF" mask="url(#01oc14j4op)"/>
            </g>
        </g>
        <g fill="#FFF">
            <path d="m19.965 185.797-4.516-12.773c-.167-.46-.334-1.275-.501-2.446H14.8c-.125.962-.3 1.764-.522 2.405l-4.495 12.814h10.18zm9.95 12.585h-5.518l-3.032-8.425H8.405l-2.886 8.425H0L12.208 166h5.583l12.125 32.382zM75.315 166l-8.926 32.382H60.66l-6.208-22.661a15.625 15.625 0 0 1-.523-3.408h-.084c-.112 1.269-.307 2.398-.585 3.387l-6.292 22.682h-5.812L32 166h5.52l6.062 23.685c.264 1.046.431 2.188.502 3.428h.146c.055-.92.278-2.076.668-3.47L51.61 166h5.102l6.312 23.873c.223.865.405 1.93.544 3.199h.083c.056-1.032.244-2.132.565-3.303L70.069 166h5.246zM81.02 191.215c2.481 2.02 5.402 3.03 8.76 3.03 4.292 0 6.44-1.47 6.44-4.41a3.94 3.94 0 0 0-.712-2.3c-.474-.682-1.111-1.277-1.912-1.787-.802-.509-2.387-1.328-4.756-2.456-2.914-1.393-4.948-2.809-6.105-4.244-1.157-1.435-1.735-3.122-1.735-5.059 0-2.787 1.1-4.983 3.303-6.585C86.506 165.8 89.32 165 92.749 165c3.247 0 5.7.397 7.359 1.191v5.143c-1.994-1.38-4.482-2.07-7.464-2.07-1.91 0-3.449.383-4.62 1.15-1.17.767-1.756 1.82-1.756 3.156 0 1.214.429 2.21 1.286 2.99.857.78 2.665 1.826 5.425 3.136 3.22 1.505 5.441 3.014 6.669 4.526 1.226 1.512 1.84 3.251 1.84 5.216 0 2.926-1.06 5.163-3.178 6.71-2.12 1.548-5.053 2.321-8.801 2.321-1.38 0-2.913-.167-4.6-.502-1.686-.334-2.982-.78-3.888-1.338v-5.414zM145.152 176.407l-1.15 2.488a96.402 96.402 0 0 0-9.47-1.631l1.17-2.509c3.276.293 6.425.843 9.45 1.652zm-.125-3.554a79.815 79.815 0 0 1-9.596 1.087l-.982-2.656c3.553-.11 6.626-.472 9.219-1.086l1.359 2.655zm-5.603 20.09c-.586-.446-1.645-1.143-3.178-2.091l2.07-1.84h-8.905c-2.036 2.105-4.05 3.798-6.042 5.08 5.393-.25 10.745-.633 16.055-1.15zm-10.662-21.323-1.254 2.613c-2.467-.6-5.463-1.038-8.989-1.317l1.045-2.571c3.457.237 6.522.662 9.198 1.275zm.084 5.79a82.988 82.988 0 0 1-9.72 1.756l-1.026-2.571c3.346-.418 6.516-1.017 9.512-1.798l1.234 2.613zm-12.71 6.063h31.378v-3.198h-31.379v3.198zm33.51-7.568h-3.72v-6.46H133.55v9.241h-3.722v-9.241h-12.167v6.544h-3.804v-9.805h15.971v-1.965h-14.34V161h32.444v3.22H133.55v1.964h16.096v9.721zm.9 13.107h-10.62c3.428 2.356 6.326 4.635 8.696 6.837l-2.78 2.362c-1.186-1.115-2.083-1.93-2.698-2.446-8.263.892-17.023 1.491-26.277 1.798l-.815-3.032c2.258-.348 4.955-2.187 8.09-5.519H113v-3.302h37.545v3.302zM195.288 171.038h-19.61v-9.199h3.513v5.708h4.41v-7.213h3.555v7.213h4.578v-5.708h3.554v9.199zm1.965 6.167H187.24a28.314 28.314 0 0 1-1.297 3.303h9.763v13.88c0 2.176-1.122 3.262-3.366 3.262-.348 0-.836-.021-1.463-.063l-.648-3.595c.418.055.822.083 1.212.083.474 0 .711-.223.711-.669v-9.303h-2.383v12.125h-3.178v-12.125h-2.216v12.125h-3.135v-12.125h-2.446v13.756h-3.555v-17.35h6.481a26.18 26.18 0 0 0 1.401-3.304h-9.366v-3.596h23.498v3.596zm-27.908-7.568h-5.1a342.515 342.515 0 0 1 2.403 21.658c.307-.07.662-.181 1.066-.334.836-7.736 1.38-14.843 1.63-21.324zm4.62 22.996a154.063 154.063 0 0 1-12.92 4.327L160 193.49c.78-.195 1.853-.544 3.22-1.045-.335-5.923-1.109-12.898-2.321-20.926l2.53-1.882h-3.157v-3.68h5.122a36.017 36.017 0 0 0-1.714-4.89l3.783-1.067c.682 1.63 1.324 3.616 1.924 5.957h4.285v3.68h-3.826l3.052 1.673c-.264 5.408-.752 11.511-1.463 18.313a14.54 14.54 0 0 0 2.153-.71l.376 3.72zM244.88 195.493l-2.467 3.136c-8.333-6.313-13.818-12.94-16.452-19.881-2.062 7.777-7.525 14.328-16.389 19.65L207 195.285c11.248-7.01 16.87-16.16 16.87-27.449V161h4.056v8.8c0 4.656 1.558 9.217 4.672 13.683 3.116 4.467 7.21 8.47 12.283 12.01M290.796 171.599h-11.728v22.494c0 1.115-.31 2.014-.93 2.696-.62.683-1.296 1.112-2.027 1.286-.733.175-2.206.261-4.422.261-1.004 0-2.356-.02-4.056-.063l-1.191-3.804c2.16.112 4.627.167 7.4.167.809 0 1.213-.425 1.213-1.275v-19.818c-1.951 4.237-4.721 8.223-8.31 11.958-3.589 3.735-7.446 6.613-11.571 8.634L253 190.706c3.986-1.853 7.696-4.512 11.131-7.975 3.437-3.463 6.032-7.173 7.788-11.132h-17.937v-3.72h21.073V161h4.013v6.878h11.728v3.72zM326.068 191.75h6.983V168.15h-6.983v23.602zm10.746 6.795h-3.763v-2.989h-6.983v2.947h-3.72v-34.117h14.466v34.16zm-17.288-31.42a428.77 428.77 0 0 1-.46 18.176c-.279 5.917-.579 9.335-.9 10.255a4.137 4.137 0 0 1-1.713 2.174c-.823.53-2.133.794-3.931.794a34.34 34.34 0 0 1-2.676-.104l-1.066-3.763a40.96 40.96 0 0 0 2.843.126c1.798 0 2.84-.537 3.126-1.61.284-1.073.588-8.53.909-22.368h-4.996c-.404 12.069-2.878 21.379-7.422 27.928l-3.24-2.278c4.516-6.661 6.795-15.212 6.836-25.65h-5.812v-3.68h5.917l.167-6.125h3.804l-.167 6.126h8.78zM374.843 177.769h5.31v-4.327h-5.31v4.327zm-9.031 0h5.309v-4.327h-5.31v4.327zm19.65 10.62-1.924 3.032a77.403 77.403 0 0 0-8.696-6.063v6.878h-3.721v-7.61c-2.843 2.87-5.868 5.255-9.073 7.15l-2.446-3.011c4.432-2.341 7.77-4.905 10.014-7.693h-7.443v-10.745h8.948v-2.823h-10.306v-3.386h10.306v-3.637h3.72v3.637h10.412v3.386h-10.411v2.823h8.99v10.745h-8.99v.46c4.403 2.425 7.944 4.712 10.62 6.857zm-27.26-22.829-2.655 2.74c-1.548-1.798-3.805-3.639-6.774-5.52l2.53-2.78a30.71 30.71 0 0 1 6.899 5.56zm27.427 27.93-1.108 3.72a197.52 197.52 0 0 1-6.167.084c-3.164 0-6.47-.044-9.92-.136-3.449-.09-6.163-.474-8.142-1.149a17.187 17.187 0 0 1-5.352-2.958c-1.296 1.979-2.592 3.693-3.888 5.142L348 195.831c3.72-3.86 6.09-7.95 7.108-12.271h-6.418v-3.512c2.285-2.342 4.243-4.773 5.874-7.296h-6.522v-3.45h10.933v3.45c-1.393 2.271-3.24 4.704-5.54 7.296h5.582v3.596c-.446 2.104-1.206 4.216-2.28 6.334 2.789 2.509 6.412 3.763 10.872 3.763 6.006 0 12.013-.084 18.02-.251zM415.03 192.818h10.83v-8.948h-10.83v8.948zm16.349-20.78h-10.703v8.32h8.988v18.396h-3.804v-2.466h-10.83v2.466h-3.866v-18.396h5.748v-18.794h3.764v6.878h10.703v3.596zm-25.296-1.4h-6.856a165.927 165.927 0 0 1 1.63 21.615l2.948-.94c1.282-7.415 2.041-14.307 2.278-20.676zm4.872 0h-3.972l2.55 1.797c-.265 4.445-.906 10.313-1.923 17.602a11.037 11.037 0 0 0 1.881-.607l.23 3.722c-5.798 2.049-10.654 3.519-14.57 4.41L394 194.136a51.2 51.2 0 0 0 3.22-.774c.11-5.908-.376-12.856-1.464-20.842l2.656-1.882h-3.993v-3.553h6.605c-.125-.67-.696-2.252-1.714-4.746l3.512-1.338c.67 1.421 1.408 3.449 2.217 6.084h5.916v3.553z"/>
        </g>
    </g>
</svg>
